HIERARCHY
ROOT Hips
{
	OFFSET 0.00000 0.00000 0.00000
	CHANNELS 6 Xposition Yposition Zposition Zrotation Yrotation Xrotation 
	JOINT LHipJoint
	{
		OFFSET 0 0 0
		CHANNELS 3 Zrotation Yrotation Xrotation
		JOINT LeftHip
		{
			OFFSET 1.75344 -1.53157 0.77399
			CHANNELS 3 Zrotation Yrotation Xrotation
			JOINT LeftKnee
			{
				OFFSET 2.25415 -6.19323 0.00000
				CHANNELS 3 Zrotation Yrotation Xrotation
				JOINT LeftAnkle
				{
					OFFSET 2.30342 -6.32861 0.00000
					CHANNELS 3 Zrotation Yrotation Xrotation
					JOINT LeftToe
					{
						OFFSET 0.10958 -0.30108 1.49206
						CHANNELS 3 Zrotation Yrotation Xrotation
						End Site
						{
							OFFSET 0.00000 -0.00000 0.77783
						}
					}
				}
			}
		}
	}
	JOINT RHipJoint
	{
		OFFSET 0 0 0
		CHANNELS 3 Zrotation Yrotation Xrotation
		JOINT RightHip
		{
			OFFSET -1.81912 -1.53156 0.77399
			CHANNELS 3 Zrotation Yrotation Xrotation
			JOINT RightKnee
			{
				OFFSET -2.22882 -6.12365 0.00000
				CHANNELS 3 Zrotation Yrotation Xrotation
				JOINT RightAnkle
				{
					OFFSET -2.21943 -6.09785 0.00000
					CHANNELS 3 Zrotation Yrotation Xrotation
					JOINT RightToe
					{
						OFFSET -0.18931 -0.52012 1.59379
						CHANNELS 3 Zrotation Yrotation Xrotation
						End Site
						{
							OFFSET -0.00000 -0.00000 0.84686
						}
					}
				}
			}
		}
	}
	JOINT lowerback
	{
		OFFSET 0 0 0
		CHANNELS 3 Zrotation Yrotation Xrotation
		JOINT Chest
		{
			OFFSET -0.00200 1.66634 -0.14248
			CHANNELS 3 Zrotation Yrotation Xrotation
			JOINT Chest2
			{
				OFFSET -0.00875 1.64542 0.09514
				CHANNELS 3 Zrotation Yrotation Xrotation
				JOINT lowerneck
				{
					OFFSET 0 0 0
					CHANNELS 3 Zrotation Yrotation Xrotation
					JOINT Neck
					{
						OFFSET 0.02257 1.59605 0.00839
						CHANNELS 3 Zrotation Yrotation Xrotation
						JOINT Head
						{
							OFFSET -0.10214 1.57530 -0.23335
							CHANNELS 3 Zrotation Yrotation Xrotation
							End Site
							{
								OFFSET -0.03588 1.60717 -0.08062
							}
						}
					}
				}
				JOINT LeftCollar
				{
					OFFSET 0 0 0
					CHANNELS 3 Zrotation Yrotation Xrotation
					JOINT LeftShoulder
					{
						OFFSET 2.54983 1.10186 0.40078
CHANNELS 3 Zrotation Xrotation Yrotation
						JOINT LeftElbow
						{
OFFSET 0 -4.288400 0.000000
CHANNELS 3 Zrotation Xrotation Yrotation
							JOINT LeftWrist
							{
OFFSET 0 -3.065520 -0.000000
CHANNELS 3 Zrotation Xrotation Yrotation
								JOINT lhand
								{
									OFFSET 0 0 0
CHANNELS 3 Zrotation Xrotation Yrotation
									JOINT LFingers
									{
OFFSET 0 -0.753040 0.000000
CHANNELS 3 Zrotation Xrotation Yrotation
										End Site
										{
OFFSET 0 -0.607120 0.000000
										}
									}
								}
								JOINT LThumb
								{
OFFSET 0 0.000000 0.000000
CHANNELS 3 Zrotation Xrotation Yrotation
									End Site
									{
OFFSET 0 -0.616390 0.616390
									}
								}
							}
						}
					}
				}
				JOINT RightCollar
				{
					OFFSET 0 0 0
					CHANNELS 3 Zrotation Yrotation Xrotation
					JOINT RightShoulder
					{
						OFFSET -2.60909 1.35448 0.21802
CHANNELS 3 Zrotation Xrotation Yrotation
						JOINT RightElbow
						{
OFFSET 0 -4.521720 -0.000000
CHANNELS 3 Zrotation Xrotation Yrotation
							JOINT RightWrist
							{
OFFSET 0 -2.891400 0.000000
CHANNELS 3 Zrotation Xrotation Yrotation
								JOINT rhand
								{
									OFFSET 0 0 0
CHANNELS 3 Zrotation Xrotation Yrotation
									JOINT RFingers
									{
OFFSET 0 -0.680540 0.000000
CHANNELS 3 Zrotation Xrotation Yrotation
										End Site
										{
OFFSET 0 -0.548670 0.000000
										}
									}
								}
								JOINT RThumb
								{
OFFSET 0 0.000000 0.000000
CHANNELS 3 Zrotation Xrotation Yrotation
									End Site
									{
OFFSET 0 -0.557050 0.557050
									}
								}
							}
						}
					}
				}
			}
		}
	}
}
MOTION
Frames: 6
Frame Time: 0.008333333333333333
9.422535 15.214730 -37.876919 -181.844262 -182.701150 -176.336581 0.000000 0.000000 0.000000 -14.289360 -16.050915 -18.955348 4.109912 12.305255 36.820615 1.637061 -0.297022 -24.121374 3.338981 -11.224170 -33.040159 0.000000 0.000000 0.000000 32.886583 8.304265 -4.367068 -1.815692 -8.471082 24.154422 -0.909927 -16.268923 -30.234608 -0.442602 -4.268706 11.833844 0.425188 0.285917 8.462039 -0.029959 0.436648 -4.651767 -0.344227 0.182804 -9.712960 -6.098505 -4.239918 -4.573331 5.626524 -5.785115 10.075744 2.417926 -2.811768 4.097170 0.000000 0.000000 0.000000 4.525042 14.369010 -25.323356 23.985649 -35.148852 7.698418 10.087100 0.554285 35.365309 0.000000 0.000000 0.000000 -7.125000 0.000000 0.000000 -12.468806 -5.062808 -13.838779 0.000000 0.000000 0.000000 -6.482591 13.961857 24.876052 -19.228994 -29.702215 -5.143806 5.907664 196.918698 52.673427 0.000000 0.000000 0.000000 7.125000 0.000000 0.000000 -15.724780 -10.236323 -166.799422
9.368356 15.198289 -37.932339 -181.966843 -182.903042 -176.445506 0.000000 0.000000 0.000000 -13.788293 -15.431543 -19.705752 4.216071 12.442567 37.316140 1.544078 -0.884726 -23.239004 2.961937 -10.632716 -31.051424 0.000000 0.000000 0.000000 33.322305 8.605157 -4.459881 -1.837275 -8.518533 24.300500 -0.841586 -16.739255 -30.271536 -0.491094 -4.493226 12.468525 0.351263 0.245147 8.448604 0.051521 0.378790 -4.432394 -0.205190 0.163643 -9.465378 -5.882710 -4.383186 -5.175788 5.362507 -5.936932 10.063702 2.280234 -2.881655 4.189427 0.000000 0.000000 0.000000 5.028043 13.823174 -26.781710 24.807660 -36.006701 8.176567 7.643301 1.811695 35.623122 0.000000 0.000000 0.000000 -7.125000 0.000000 0.000000 -13.797421 -4.975055 -15.377949 0.000000 0.000000 0.000000 -6.359024 13.614845 25.118283 -19.567041 -30.117150 -5.312370 4.515245 198.668637 53.001265 0.000000 0.000000 0.000000 7.125000 0.000000 0.000000 -16.294648 -10.213170 -166.269871
9.329420 15.190073 -37.965311 -182.012960 -182.929007 -176.506691 0.000000 0.000000 0.000000 -13.506358 -15.110157 -20.169581 4.318645 12.572760 37.789667 1.519935 -1.015693 -23.014783 3.016401 -10.721585 -31.346522 0.000000 0.000000 0.000000 33.555034 8.836494 -4.547200 -1.861551 -8.571440 24.463750 -0.866254 -16.684618 -30.377519 -0.689707 -5.308510 14.790906 0.551415 0.158112 8.671610 0.038839 0.288288 -4.649391 -0.317898 0.104940 -9.836024 -5.864447 -4.273187 -4.981124 5.292196 -5.803148 10.336809 2.266273 -2.821122 4.229563 0.000000 0.000000 0.000000 5.223442 13.998617 -27.575346 25.130001 -36.336493 8.366747 6.767042 2.200582 35.172043 0.000000 0.000000 0.000000 -7.125000 0.000000 0.000000 -14.235030 -4.427379 -15.770234 0.000000 0.000000 0.000000 -6.362439 13.688483 25.944337 -20.007195 -30.650925 -5.534982 5.346172 197.506158 52.730157 0.000000 0.000000 0.000000 7.125000 0.000000 0.000000 -15.955715 -10.298996 -166.610169
9.283095 15.185973 -37.993773 -182.170404 -182.580865 -176.645760 0.000000 0.000000 0.000000 -13.061973 -14.913944 -20.557963 4.457584 12.745604 38.423432 1.399576 -0.127320 -22.341885 3.534122 -11.512997 -34.030401 0.000000 0.000000 0.000000 33.976169 9.304183 -4.144710 -1.817136 -8.474394 24.164553 -0.748112 -16.962168 -29.881442 -0.732795 -5.469117 15.251416 0.729664 0.273296 9.063196 -0.042924 0.463891 -4.964654 -0.539879 0.170963 -10.415439 -5.364837 -4.153605 -4.366610 5.076866 -5.692938 10.367526 2.139051 -2.768231 4.109319 0.000000 0.000000 0.000000 5.525741 14.623653 -27.736831 25.647709 -36.858684 8.675446 6.150379 1.891914 35.413743 0.000000 0.000000 0.000000 -7.125000 0.000000 0.000000 -14.579862 -4.584979 -16.214636 0.000000 0.000000 0.000000 -6.003538 13.922861 26.351655 -20.292939 -30.993633 -5.681417 4.378691 197.923989 53.739285 0.000000 0.000000 0.000000 7.125000 0.000000 0.000000 -16.344558 -9.545622 -165.994162
9.238019 15.177826 -38.037380 -182.112863 -182.716184 -176.740790 0.000000 0.000000 0.000000 -12.791359 -15.386953 -20.983402 4.601628 12.920571 39.071929 1.257260 0.694329 -21.460125 4.080241 -12.250088 -36.646077 0.000000 0.000000 0.000000 34.228678 10.051655 -3.861092 -1.790876 -8.416162 23.985461 -0.633222 -17.656400 -29.869885 -0.861842 -5.919882 16.552143 0.630502 0.354731 8.715960 -0.079371 0.552204 -4.588710 -0.533662 0.223024 -9.791075 -4.708362 -4.121951 -4.702406 4.604433 -5.619960 9.807878 1.983465 -2.734761 4.164761 0.000000 0.000000 0.000000 5.418161 13.737457 -27.828470 25.774404 -36.984985 8.751599 5.576967 2.380428 34.828194 0.000000 0.000000 0.000000 -7.125000 0.000000 0.000000 -14.852334 -3.952919 -16.385492 0.000000 0.000000 0.000000 -5.879206 13.071538 26.664785 -20.729775 -31.511474 -5.908089 5.560062 196.857858 51.755830 0.000000 0.000000 0.000000 7.125000 0.000000 0.000000 -15.867650 -11.170829 -166.984929
9.182124 15.178010 -38.083117 -182.332918 -182.783165 -176.660053 0.000000 0.000000 0.000000 -11.968265 -16.093434 -22.136421 4.965731 13.345018 40.674256 1.191770 -0.077125 -20.622343 3.956566 -12.099555 -36.089070 0.000000 0.000000 0.000000 34.769076 10.638153 -3.560395 -1.703806 -8.219684 23.383308 -0.550406 -18.047852 -29.751693 -0.925495 -6.128046 17.156631 0.740886 0.230216 9.181174 0.068691 0.418589 -4.840874 -0.418720 0.153579 -10.349513 -4.473223 -3.727523 -4.305676 4.506360 -5.090406 9.166060 2.057309 -2.484227 4.054566 0.000000 0.000000 0.000000 5.203147 14.518921 -27.392967 26.555427 -37.751880 9.225593 5.860278 1.962490 35.129414 0.000000 0.000000 0.000000 -7.125000 0.000000 0.000000 -14.717720 -4.276404 -16.304498 0.000000 0.000000 0.000000 -6.197889 13.087223 27.977422 -21.376004 -32.264619 -6.249521 3.996490 197.001211 53.343154 0.000000 0.000000 0.000000 7.125000 0.000000 0.000000 -16.501929 -9.995134 -166.003291
